{
  "asset": {
    "version": "2.0",
    "generator": "RustingEngine squash box fixture"
  },
  "scene": 0,
  "scenes": [
    {
      "name": "Box",
      "nodes": [
        0
      ]
    }
  ],
  "nodes": [
    {
      "name": "Box",
      "mesh": 0
    }
  ],
  "meshes": [
    {
      "name": "Box",
      "primitives": [
        {
          "attributes": {
            "POSITION": 0,
            "NORMAL": 1
          },
          "indices": 2,
          "targets": [
            {
              "POSITION": 3
            },
            {
              "POSITION": 4
            }
          ]
        },
        {
          "attributes": {
            "POSITION": 5,
            "NORMAL": 6
          },
          "indices": 7,
          "targets": [
            {
              "POSITION": 8
            },
            {
              "POSITION": 9
            }
          ]
        }
      ],
      "weights": [
        0,
        0
      ],
      "extras": {
        "targetNames": [
          "squash",
          "lean"
        ]
      }
    }
  ],
  "animations": [
    {
      "name": "wobble",
      "samplers": [
        {
          "input": 10,
          "output": 11,
          "interpolation": "LINEAR"
        }
      ],
      "channels": [
        {
          "sampler": 0,
          "target": {
            "node": 0,
            "path": "weights"
          }
        }
      ]
    }
  ],
  "buffers": [
    {
      "uri": "data:application/octet-stream;base64,",
      "byteLength": 2496
    }
  ],
  "bufferViews": [
    {
      "buffer": 0,
      "byteOffset": 0,
      "byteLength": 288
    },
    {
      "buffer": 0,
      "byteOffset": 288,
      "byteLength": 288
    },
    {
      "buffer": 0,
      "byteOffset": 576,
      "byteLength": 72
    },
    {
      "buffer": 0,
      "byteOffset": 648,
      "byteLength": 288
    },
    {
      "buffer": 0,
      "byteOffset": 936,
      "byteLength": 288
    },
    {
      "buffer": 0,
      "byteOffset": 1224,
      "byteLength": 288
    },
    {
      "buffer": 0,
      "byteOffset": 1512,
      "byteLength": 288
    },
    {
      "buffer": 0,
      "byteOffset": 1800,
      "byteLength": 72
    },
    {
      "buffer": 0,
      "byteOffset": 1872,
      "byteLength": 288
    },
    {
      "buffer": 0,
      "byteOffset": 2160,
      "byteLength": 288
    },
    {
      "buffer": 0,
      "byteOffset": 2448,
      "byteLength": 16
    },
    {
      "buffer": 0,
      "byteOffset": 2464,
      "byteLength": 32
    }
  ],
  "accessors": [
    {
      "bufferView": 0,
      "componentType": 5126,
      "count": 24,
      "type": "VEC3",
      "min": [
        -0.5,
        0,
        -0.5
      ],
      "max": [
        0.5,
        1,
        0.5
      ]
    },
    {
      "bufferView": 1,
      "componentType": 5126,
      "count": 24,
      "type": "VEC3",
      "min": [
        -1.0,
        -1.0,
        -1.0
      ],
      "max": [
        1.0,
        1.0,
        1.0
      ]
    },
    {
      "bufferView": 2,
      "componentType": 5123,
      "count": 36,
      "type": "SCALAR"
    },
    {
      "bufferView": 3,
      "componentType": 5126,
      "count": 24,
      "type": "VEC3",
      "min": [
        -0.15,
        -0.5,
        -0.15
      ],
      "max": [
        0.15,
        0.0,
        0.15
      ]
    },
    {
      "bufferView": 4,
      "componentType": 5126,
      "count": 24,
      "type": "VEC3",
      "min": [
        0.0,
        0.0,
        0.0
      ],
      "max": [
        0.6666666666666666,
        0.0,
        0.0
      ]
    },
    {
      "bufferView": 5,
      "componentType": 5126,
      "count": 24,
      "type": "VEC3",
      "min": [
        -0.3,
        1,
        -0.3
      ],
      "max": [
        0.3,
        1.1,
        0.3
      ]
    },
    {
      "bufferView": 6,
      "componentType": 5126,
      "count": 24,
      "type": "VEC3",
      "min": [
        -1.0,
        -1.0,
        -1.0
      ],
      "max": [
        1.0,
        1.0,
        1.0
      ]
    },
    {
      "bufferView": 7,
      "componentType": 5123,
      "count": 36,
      "type": "SCALAR"
    },
    {
      "bufferView": 8,
      "componentType": 5126,
      "count": 24,
      "type": "VEC3",
      "min": [
        -0.09,
        -0.55,
        -0.09
      ],
      "max": [
        0.09,
        -0.5,
        0.09
      ]
    },
    {
      "bufferView": 9,
      "componentType": 5126,
      "count": 24,
      "type": "VEC3",
      "min": [
        0.6666666666666666,
        0.0,
        0.0
      ],
      "max": [
        0.7333333333333334,
        0.0,
        0.0
      ]
    },
    {
      "bufferView": 10,
      "componentType": 5126,
      "count": 4,
      "type": "SCALAR",
      "min": [
        0
      ],
      "max": [
        3
      ]
    },
    {
      "bufferView": 11,
      "componentType": 5126,
      "count": 8,
      "type": "SCALAR"
    }
  ]
}
